<?xml version="1.0" encoding="iso-8859-1"?>
<!-- Generator: Adobe Illustrator 19.0.0, SVG Export Plug-In . SVG Version: 6.00 Build 0)  -->
<svg version="1.1" id="Layer_1" xmlns="http://www.w3.org/2000/svg" xmlns:xlink="http://www.w3.org/1999/xlink" x="0px" y="0px"
	 viewBox="0 0 502 502" style="enable-background:new 0 0 502 502;" xml:space="preserve">
<g>
	<g>
		<g>
			<path d="M458.405,232.369c0.044-1.227,0.066-2.45,0.066-3.664c0-56.737-46.159-102.896-102.896-102.896
				c-10.541,0-20.86,1.575-30.785,4.69c-15.823-24.709-42.951-39.726-72.729-39.726c-27.546,0-53.506,13.342-69.685,35.325
				c-8.259-3.014-16.925-4.536-25.866-4.536c-40.875,0-74.3,32.508-75.772,73.03C33.48,207.706,0,251.133,0,300.898
				c0,60.835,49.493,110.329,110.328,110.329h294.084c53.811,0,97.588-43.778,97.588-97.588
				C502,280.96,485.445,250.376,458.405,232.369z M273.237,288.847c-3.736,1.548-6.173,5.194-6.173,9.239V391h-30v-93.4
				c-0.002-4.044-2.439-7.691-6.175-9.239c-3.737-1.549-8.038-0.692-10.898,2.167l-19.383,19.384
				c-2.834,2.833-6.601,4.394-10.607,4.394s-7.773-1.561-10.606-4.393c-5.849-5.849-5.849-15.365,0-21.213l61.576-61.577
				c2.869-2.869,6.662-4.419,10.754-4.388c0.064,0.001,0.127,0.001,0.191,0c4.097-0.046,7.886,1.52,10.753,4.388l61.577,61.577
				c5.849,5.849,5.849,15.365,0.001,21.213c-2.834,2.833-6.601,4.394-10.607,4.394s-7.773-1.561-10.606-4.394l-18.899-18.899
				C281.275,288.154,276.974,287.299,273.237,288.847z M404.412,391.227h-117.35v-69l1.829,1.829
				c6.61,6.61,15.399,10.251,24.748,10.251s18.138-3.641,24.749-10.251c13.646-13.646,13.646-35.851,0-49.498L276.81,212.98
				c-6.616-6.616-15.39-10.246-24.74-10.246c-0.167,0-0.335,0-0.5,0c-9.351,0-18.125,3.631-24.741,10.247l-61.577,61.577
				c-13.646,13.646-13.646,35.851,0.001,49.498c6.61,6.61,15.399,10.251,24.748,10.251s18.138-3.641,24.749-10.251l2.313-2.313
				v69.485H110.328C60.521,391.227,20,350.706,20,300.898c0-43.074,30.628-80.348,72.827-88.628c0.027-0.005,0.053-0.014,0.081-0.02
				c12.453-2.431,25.635-2.205,37.982,0.669c0.763,0.177,1.524,0.263,2.275,0.263c4.544,0,8.656-3.119,9.73-7.736
				c1.252-5.379-2.094-10.754-7.473-12.006c-11.164-2.598-22.863-3.42-34.355-2.471c3.194-27.768,26.833-49.407,55.443-49.407
				c5.427,0,10.713,0.768,15.807,2.277c-4.398,10.515-6.697,21.857-6.697,33.375c0,5.523,4.478,10,10,10c5.522,0,10-4.477,10-10
				c0-11.768,3.113-23.289,8.994-33.387c0.036-0.059,0.078-0.113,0.113-0.173c11.901-20.282,33.87-32.881,57.333-32.881
				c25.187,0,47.91,13.984,59.305,36.496c0.144,0.285,0.301,0.559,0.468,0.824c0.071,0.172,0.134,0.345,0.215,0.514
				c4.282,8.961,6.453,18.586,6.453,28.607c0,5.523,4.478,10,10,10c5.522,0,10-4.477,10-10c0-9.824-1.611-19.362-4.794-28.466
				c7.087-1.937,14.403-2.939,21.867-2.939c43.476,0,79.217,33.65,82.608,76.269c-10.763-3.957-22.236-6.027-33.771-6.027
				c-5.522,0-10,4.477-10,10s4.478,10,10,10c12.615,0,25.133,3.092,36.2,8.943c0.395,0.209,0.798,0.384,1.205,0.535
				c0.385,0.306,0.795,0.588,1.229,0.838C467.074,260.2,482,285.977,482,313.639C482,356.421,447.194,391.227,404.412,391.227z"/>
			<path d="M46.018,275.839c1.57,0.902,3.283,1.331,4.973,1.331c3.463,0,6.831-1.801,8.68-5.019
				c3.73-6.491,8.613-12.134,14.512-16.773c4.341-3.414,5.093-9.701,1.679-14.042c-3.413-4.342-9.702-5.093-14.042-1.679
				c-7.92,6.229-14.478,13.809-19.488,22.529C39.578,266.975,41.229,273.087,46.018,275.839z"/>
			<path d="M110,359c-31.981,0-58-26.019-58-58c0-5.523-4.478-10-10-10s-10,4.477-10,10c0,43.009,34.99,78,78,78
				c5.522,0,10-4.477,10-10S115.522,359,110,359z"/>
		</g>
	</g>
</g>
<g>
</g>
<g>
</g>
<g>
</g>
<g>
</g>
<g>
</g>
<g>
</g>
<g>
</g>
<g>
</g>
<g>
</g>
<g>
</g>
<g>
</g>
<g>
</g>
<g>
</g>
<g>
</g>
<g>
</g>
</svg>
